<?xml version="1.0" encoding="utf-8"?>
<!-- Generator: Adobe Illustrator 23.0.3, SVG Export Plug-In . SVG Version: 6.00 Build 0)  -->
<svg version="1.1" id="Layer_1" xmlns="http://www.w3.org/2000/svg" xmlns:xlink="http://www.w3.org/1999/xlink" x="0px" y="0px"
	 viewBox="0 0 128 128" style="enable-background:new 0 0 128 128;" xml:space="preserve">
<style type="text/css">
	.st0{fill:none;stroke:#FED13A;stroke-width:3;stroke-miterlimit:10;}
</style>
<g>
	<circle class="st0" cx="65.16" cy="17.37" r="14.98"/>
	<path class="st0" d="M76.12,35.71H34c-1.82,0-3.3,1.46-3.32,3.28l-0.15,12.46c-0.02,1.85,1.47,3.36,3.32,3.36h13.44
		c1.84,0,3.32,1.49,3.32,3.32v44.07c0,1.83-1.48,3.31-3.31,3.32l-13.47,0.07c-1.84,0.01-3.33,1.52-3.31,3.36l0.15,13.06
		c0.02,1.82,1.5,3.28,3.32,3.28h62.51c1.84,0,3.32-1.49,3.32-3.32v-13.04c0-1.84-1.49-3.32-3.32-3.32H82.77
		c-1.84,0-3.32-1.49-3.32-3.32V39.03C79.45,37.2,77.96,35.71,76.12,35.71z"/>
</g>
</svg>
