<?xml version="1.0" encoding="utf-8"?>
<!-- Generator: Adobe Illustrator 23.0.3, SVG Export Plug-In . SVG Version: 6.00 Build 0)  -->
<svg version="1.1" id="Layer_1" xmlns="http://www.w3.org/2000/svg" xmlns:xlink="http://www.w3.org/1999/xlink" x="0px" y="0px"
	 viewBox="0 0 128 128" style="enable-background:new 0 0 128 128;" xml:space="preserve">
<style type="text/css">
	.st0{fill:none;stroke:#FED13A;stroke-width:3;stroke-miterlimit:10;}
</style>
<g>
	<circle class="st0" cx="27.6" cy="13.95" r="9.08"/>
	<path class="st0" d="M35.84,95.93"/>
	<path class="st0" d="M83.46,95.95c4.05,7.8,1.01,17.41-6.8,21.46s-17.41,1.01-21.46-6.8"/>
	<path class="st0" d="M88.04,67.6l2.66-1.36c8.19-4.25,18.47-0.67,22.97,8l1.49,2.88c0.45,0.87,0.15,1.91-0.67,2.34l-81.96,42.53
		c-0.82,0.42-1.85,0.07-2.3-0.8l-1.49-2.88c-4.5-8.67-1.4-19.15,6.79-23.39l1.05-0.6"/>
	<path class="st0" d="M35.47,95.21L15.9,57.49c-6.16-11.87,0.09-27.33,13.95-34.53l3.82-1.98c13.87-7.2,30.1-3.4,36.26,8.47
		l19.58,37.73"/>
</g>
</svg>
