<?xml version="1.0" encoding="utf-8"?>
<!-- Generator: Adobe Illustrator 23.0.3, SVG Export Plug-In . SVG Version: 6.00 Build 0)  -->
<svg version="1.1" id="Layer_1" xmlns="http://www.w3.org/2000/svg" xmlns:xlink="http://www.w3.org/1999/xlink" x="0px" y="0px"
	 viewBox="0 0 128 128" style="enable-background:new 0 0 128 128;" xml:space="preserve">
<style type="text/css">
	.st0{fill:none;stroke:#FED13A;stroke-width:3;stroke-miterlimit:10;}
</style>
<g>
	<path class="st0" d="M22.19,45.74h-1.06c-9.97,0-18.05,8.08-18.05,18.05v43.14c0,9.97,8.08,18.05,18.05,18.05h1.06
		c9.97,0,18.05-8.08,18.05-18.05V63.79C40.23,53.82,32.15,45.74,22.19,45.74z"/>
	<path class="st0" d="M64.27,3.22H63.2c-9.97,0-18.05,8.08-18.05,18.05v85.67c0,9.97,8.08,18.05,18.05,18.05h1.06
		c9.97,0,18.05-8.08,18.05-18.05V21.26C82.31,11.3,74.23,3.22,64.27,3.22z"/>
	<path class="st0" d="M106.35,24.26h-1.06c-9.97,0-18.05,8.08-18.05,18.05v64.63c0,9.97,8.08,18.05,18.05,18.05h1.06
		c9.97,0,18.05-8.08,18.05-18.05V42.3C124.39,32.34,116.31,24.26,106.35,24.26z"/>
</g>
</svg>
