<?xml version="1.0" encoding="utf-8"?>
<!-- Generator: Adobe Illustrator 23.0.3, SVG Export Plug-In . SVG Version: 6.00 Build 0)  -->
<svg version="1.1" id="Layer_1" xmlns="http://www.w3.org/2000/svg" xmlns:xlink="http://www.w3.org/1999/xlink" x="0px" y="0px"
	 viewBox="0 0 512 512" style="enable-background:new 0 0 512 512;" xml:space="preserve">
<style type="text/css">
	.st0{fill:none;stroke:#FED13A;stroke-width:3;stroke-miterlimit:10;}
</style>
<g>
	<circle class="st0" cx="253.86" cy="65.05" r="61.05"/>
	<path class="st0" d="M298.55,139.83H126.82c-7.42,0-13.46,5.97-13.54,13.38l-0.61,50.79c-0.09,7.54,6,13.71,13.54,13.71h54.78
		c7.48,0,13.55,6.06,13.55,13.55v179.66c0,7.45-6.02,13.51-13.48,13.55l-54.93,0.28c-7.52,0.04-13.56,6.19-13.48,13.7l0.62,53.25
		c0.09,7.42,6.13,13.39,13.54,13.39h254.85c7.48,0,13.55-6.06,13.55-13.55v-53.18c0-7.48-6.06-13.55-13.55-13.55h-56.02
		c-7.48,0-13.55-6.06-13.55-13.55v-257.9C312.1,145.9,306.03,139.83,298.55,139.83z"/>
</g>
</svg>
