<?xml version="1.0" encoding="utf-8"?>
<!-- Generator: Adobe Illustrator 23.0.3, SVG Export Plug-In . SVG Version: 6.00 Build 0)  -->
<svg version="1.1" id="Layer_1" xmlns="http://www.w3.org/2000/svg" xmlns:xlink="http://www.w3.org/1999/xlink" x="0px" y="0px"
	 viewBox="0 0 512 512" style="enable-background:new 0 0 512 512;" xml:space="preserve">
<style type="text/css">
	.st0{fill:none;stroke:#FED13A;stroke-width:3;stroke-miterlimit:10;}
</style>
<g>
	<circle class="st0" cx="108.8" cy="43.71" r="38.77"/>
	<path class="st0" d="M144.03,393.89"/>
	<path class="st0" d="M347.43,393.97c17.3,33.33,4.3,74.38-29.04,91.68c-33.33,17.3-74.38,4.3-91.68-29.04"/>
	<path class="st0" d="M371.51,270.59l6.84-3.55c34.97-18.15,78.89-2.85,98.1,34.17l6.38,12.3c1.92,3.7,0.64,8.17-2.85,9.99
		L129.91,505.16c-3.5,1.81-7.89,0.28-9.81-3.42l-6.38-12.3c-19.21-37.02-6.43-81.74,28.54-99.89l0,0"/>
	<path class="st0" d="M142.42,390.79L58.84,229.71C32.52,179,59.21,112.97,118.44,82.24l16.32-8.47
		c59.23-30.74,128.58-14.54,154.89,36.17l83.64,161.18"/>
</g>
</svg>
