<svg xmlns="http://www.w3.org/2000/svg" xmlns:xlink="http://www.w3.org/1999/xlink" viewBox="0 0 884.85 2173.8"><defs><style>.cls-1,.cls-10,.cls-11,.cls-4,.cls-45,.cls-46,.cls-7,.cls-8,.cls-9{fill:none;}.cls-2{clip-path:url(#clip-path);}.cls-3{fill:#fed13a;}.cls-10,.cls-11,.cls-12,.cls-4,.cls-45,.cls-46,.cls-7,.cls-8,.cls-9{stroke:#000;stroke-miterlimit:10;}.cls-4{stroke-width:5px;}.cls-5{fill:#be3a22;}.cls-6{fill:#222b6f;}.cls-7{stroke-width:4px;}.cls-10,.cls-8{stroke-width:3px;}.cls-9{stroke-width:11px;stroke-dasharray:10.06 10.06;}.cls-10,.cls-46{stroke-linecap:round;}.cls-11{stroke-width:6px;}.cls-12{fill:#c5e8c5;stroke-width:2px;}.cls-13{font-size:23.49px;}.cls-13,.cls-14,.cls-15,.cls-16,.cls-17,.cls-18,.cls-25{font-family:ArialMT, Arial;}.cls-14{font-size:22.28px;}.cls-15{font-size:19.22px;}.cls-16{font-size:20.48px;}.cls-17{font-size:19.31px;}.cls-18{font-size:12px;}.cls-19{font-size:20.91px;}.cls-19,.cls-22,.cls-26,.cls-33,.cls-39,.cls-42{font-family:MyriadPro-Regular, Myriad Pro;}.cls-20{letter-spacing:0.02em;}.cls-21{letter-spacing:0em;}.cls-22{font-size:28.04px;fill:#100055;letter-spacing:-0.03em;}.cls-23{letter-spacing:0em;}.cls-24{letter-spacing:0.03em;}.cls-25{font-size:20.77px;letter-spacing:0em;}.cls-26{font-size:21.1px;}.cls-27{letter-spacing:-0.03em;}.cls-28{letter-spacing:0em;}.cls-29{letter-spacing:0.03em;}.cls-30{letter-spacing:-0.01em;}.cls-31{letter-spacing:0.02em;}.cls-32{letter-spacing:0em;}.cls-33{font-size:12.05px;}.cls-34{letter-spacing:-0.03em;}.cls-35{letter-spacing:0.02em;}.cls-36{letter-spacing:-0.01em;}.cls-37{letter-spacing:0.02em;}.cls-38{letter-spacing:0em;}.cls-39{font-size:19.71px;}.cls-40{letter-spacing:0.02em;}.cls-41{letter-spacing:0em;}.cls-42{font-size:19.19px;}.cls-43{letter-spacing:-0.01em;}.cls-44{letter-spacing:0em;}</style><clipPath id="clip-path"><rect class="cls-1" x="-1.85" y="-1.34" width="888.26" height="2175.22"/></clipPath></defs><g id="Layer_2" data-name="Layer 2"><g class="cls-2"><rect class="cls-3" x="-119.15" y="-0.71" width="1311.75" height="2175.23"/><path class="cls-4" d="M786.24-1.34c-25.56,17.22-49.56,36.22-67.56,63.22-1,2-2,5-3,7-17,78-31,149-50,227-6,24-10,46-15,70,0,1-2,3-2,4-4,20-7,38-13,57-4,16-6,32-10,48a1124.89,1124.89,0,0,0-26,115c-3,13,3,25,6,38,1,3,3,5,4,8,1,2,0,3,1,5,1,3,3,5,4,8,1,2,0,3,1,5,18,39,38,75,56,114a12.68,12.68,0,0,1,1,6c-5,20-10,38-16,57-1,7-2,13-1,20,2,9,2,17,2,26,0,12-5,23-12,33-5,7-11,12-17,18-34,41-62,84-95,124-4,10-13,17-20,27-9,14-21,26-32,39-2,2-5,3-7,6-10,14-24,22-31,37-4,7-5,16-5,24-1,6-7,10-12,12-48,27-98,46-146,69-7,8-11,17-15,26-2,7-3,13-5,20a391.11,391.11,0,0,0-10,58c-2,12-5,22-7,34-1,14-4,27-7,41-3,11-9,19-16,27-13,14-24,29-37,44-35,39-79.28,79.29-115.48,116.24l-197.35,353.93"/><path class="cls-4" d="M672.88,770.85s63.27-95.08,99.47-93.51,94.5-100.77,94.5-100.77l90-157.3s7.71-26.88,8.35-32.87c.61-5.8-7.7-5.9,0-15.91,8.7-11.29-30.54-137-30.54-137L900.76,113l-18-114.35"/><path class="cls-4" d="M445.28,1156.86s-46.82-47.33-55.43-63a68.88,68.88,0,0,0-21.13-23.48l-34.83,9.39s-49.69-12.91-61.82-28.56-93.92-67.7-93.92-67.7-50.87-35.22-72.78-29.74C59.2,956.92,61.94,980,47.07,984.7s-7.83,10.18-80.22,12.53-46.83,1.56-88.17-1.18"/><path class="cls-4" d="M436.24,1189.16s41.91,13,53.65,14,116.35,21.92,116.35,21.92,67,3.13,90.52,26.6,71,36.79,71,36.79l94.17,19.3,106,33.71,63.65,36.79,49.77,25.76c114.26,79,111.4,80.61,111.4,80.61"/><path class="cls-4" d="M926.4,204.11l-48.86,16.38s-30.78,9.13-46.43-29.74c-33.39-34.44-39.65-36-39.65-36s-35-20.87-44.61-19.31A110.13,110.13,0,0,1,706.15,125L549.63,91.88s-96-5-123.39,11-66,74.34-66,74.34-5.74,32.35,28.7,49.83,51.39,26.87,66.52,56.35,17,47.74,17,47.74,5.22,76.17-3.65,98.08-28.17,53.22-28.17,53.22-35.48,27.65-26.09,58.44,70.44,61.56,87.13,122.6S539.2,761,539.2,761,619,900.31,636.76,912.84s37.57,9.91,60,85,27.13,88.69,23.48,139.3-40.7,197.74-40.7,197.74l-174.26-40.17-12,4.69-89.21-19.3-101.83-24"/><path class="cls-4" d="M540.1,762.57c-5.42.31-10.42,1.32-15.42,4.33l-81.61,67.5c31.61,11.88,63.61,24.94,89.61,49.06,19,17.08,27,40.19,34,64.31a30.3,30.3,0,0,0,4,8c8,12.06,16,22.1,22,34.16,1,2,0,3,1,5,7,14.06,9,29.14,13,44.21,2,4,3,9,4,13.06,1,13.06,3,25.12,9,37.18,7,14.07,4,30.15,4,45.22,0,3-1,6-2,9-8,60.29-17,116.56-32,176.85-1,4-3,7-5,10-9,14.07-17,27.13-18,42.2,0,11.06,0,23.11-1,34.17-9,76.36-21,149.72-33.7,224,0,0-59.17,403.63-53.89,424s-24.46,145.57-24.46,145.57"/><rect class="cls-5" x="651.92" y="417.93" width="46.43" height="59.77" rx="4.83" transform="translate(-16.8 26.43) rotate(-2.22)"/><rect class="cls-5" x="503.95" y="1126.05" width="8.19" height="7.05" rx="1.29" transform="translate(207.13 -71.88) rotate(10.16)"/><path class="cls-5" d="M523.87,1100.66l-2.73,3.55a1.28,1.28,0,0,1-1.8.23l-2.23-1.71-6.32,8.24-1.25,7a1.28,1.28,0,0,1-1.49,1l-4.33-.78a1.28,1.28,0,0,1-1-1.49l1.44-8a7.36,7.36,0,0,0,.62-1.29l7.33-9.55a1.18,1.18,0,0,1,.22-.45l2.72-3.54a1.29,1.29,0,0,1,1.81-.24l6.81,5.23A1.3,1.3,0,0,1,523.87,1100.66Z"/><circle class="cls-4" cx="258.04" cy="1218.38" r="6.33"/><rect class="cls-5" x="265.41" y="1177.23" width="25.3" height="25.3" rx="2.8" transform="translate(-184.3 58.79) rotate(-9.08)"/><path class="cls-4" d="M256.68,1224.7s-4.57,26.87,16.43,47.87"/><path class="cls-4" d="M257.2,1211.27s-3.33-51.65,5.08-68.09,33.85-74.74,33.85-74.74"/><path class="cls-4" d="M264.69,1216.62s14.64-4,34.06-9.2c37.62-10.11,93.17-24.89,94.89-24.45l.91.21c3.48.75,11.74,2.28,13,5,1.44,3,10.29,14.14,10.29,14.14"/><path class="cls-4" d="M334.88,1081.16l2.5,17.16,0,.26s-49,47.08-38.67,108.84"/><polyline class="cls-4" points="337.38 1098.32 394.92 1182.93 394.94 1182.96"/><path class="cls-6" d="M421.41,719.12a23.11,23.11,0,0,0,1.14,5.23c.42,1.21,2.35.69,1.93-.53a22,22,0,0,1-1.06-4.63c3.73,10.16,7.11,25.18,8.41,27.62,3.05,5.75,6.66,12.19,4.17,18.73-1.75,4.59-3.53,7-1.87,12.09,1.05,3.18,2.76,6.11,3.48,9.41,1.28,5.81-.69,11.39-4.43,15.9-4.74,5.7-11.61,9.35-17.8,13.23-7.38,4.62-14.7,10.18-22.48,14.08l-.13-.18c-9.36,6.41-22.68,14.15-23.64,19.65a2,2,0,0,1-2.19,1.8A335.57,335.57,0,0,1,338,922.66a325,325,0,0,1-21.15,33.59c-1.33,5-17.1,18.69-15.68,24.19,2.33,9.07-2.32,18.06-6.78,25.66-2.92,5-5.92,9.9-8.88,14.85-1.75,2.93-3.43,6.87-7,7.93-3.05.9-6.05-.61-8.4-2.44-4.16-3.23-7.33-7.25-11.9-10.06-7.62-4.69-16.14-7.69-23.86-12.21A145.73,145.73,0,0,1,214,989.5c-13.65-11.57-25.6-25-38.43-37.4C149,926.34,111.89,903,74.82,921.66c-16.21,8.17-29.89,20.49-45.94,29C11.5,959.84-7.5,966.86-26.19,972.9c-8.93,2.89-18.29,5.11-27.74,4.93-9.24-.19-18.17-2.77-26.79-5.92-12.89-4.72-26.59-11.13-40.39-11.62V893.86a5.3,5.3,0,0,0-.19-1.42V734.8c0-.15,0-.3,0-.45a5.15,5.15,0,0,0,.21-1.51V606.06a4.94,4.94,0,0,0,0-.68,5.09,5.09,0,0,0,0-.69V503.34s0-.07,0-.1,0-.07,0-.1V425.66a5,5,0,0,0-.07-.88,5,5,0,0,0,.07-.88V-1.34H282.16a2.21,2.21,0,0,1-1.08,2.84c-11.54,6.26-23.32,12.87-29.87,24.74-2.36,4.27-4.64,9.08-9.6,10.8-4.26,1.48-8.46-.12-11.9-2.72-4.69-3.55-7.82-8.65-12.14-12.58-3.57-3.25-9.89-8.34-14.91-8.54-4.4-.17-6.41,6.78-8,10-1.53,3.07-3,6.17-4.26,9.36-2.45,6.15-4.26,12.64-4.31,19.3-.21,26.86,25.83,42.84,47.44,52.31,11.18,4.91,23.07,8.86,33.54,15.25,9.18,5.6,14.68,12.73,18.18,22.82,2.53,7.27,5.31,11.31,13.22,12.78,4.49.83,9.15,1.19,13,3.89,4.12,2.88,6,7.53,7.86,12,1.72,4.08,7.43,14.26,13,9a2.53,2.53,0,0,1,4.18,1.11c2.05,9.38,4.1,18.86,7.75,27.78,3.77,9.23,9.65,17.11,16.13,24.61,10.88,12.57,22,25.07,33.83,36.74a244.44,244.44,0,0,0,18.6,16.65c5.23,4.2,12.19,8,14.51,14.69,4.41,12.82-8.41,25.37-15.66,34.32-5.24,6.46-9.6,13.19-11.42,21.42-1.66,7.54-1.47,15.35-1.18,23A45.76,45.76,0,0,1,430,401.16a2.53,2.53,0,0,1-.9,3.42l-14.62,7.69q-10.92,21-21.86,42c-3.4,6.54-6.35,13.7-10.44,19.84-2.64,4-6.82,5.65-11.42,4-10.66-3.8-14.81-18-14.08-28.08.09-1.18.22-2.35.2-3.54-.06-2.61,0-3.06-2.36-3.78-2.93-.89-7.85,1.11-10.67,2.09-7.19,2.5-14.89,8.64-12.15,17.16.71,2.22-1.84,3.74-3.67,2.83-15.17-7.53-25.06-23-26.95-39.71a48.61,48.61,0,0,1,3.65-24.41c1.72-4.18,1.48-7.15-2.82-9.18a42.47,42.47,0,0,0-9.19-3c-4-.85-8.16-1.06-10.65-4.76-2.83-4.2-2.74-8.74-8.23-10.6-4-1.36-8.51-1.11-12.68-1.11l-34.13,0a96.08,96.08,0,0,0-9.75,0c-3.44.36-3.8,1.3-3.09,4.78,1,5.09,4.56,9.43,7.78,13.33,6.16,7.46,12,14.93,16.67,23.43,3.56,6.44,10,16.41,7.46,24.14a9.19,9.19,0,0,1-6.71,6.27c-3.81.67-6-2.07-9.41-3-4.88-1.41-10.21,2.55-11.48,7.2-1.41,5.16,1.68,10.51,5.62,13.62,4.23,3.35,9.81,3.78,14.36,6.55a22.64,22.64,0,0,1,6.61,6.47c5.06,7.23,7.13,15.89,13,22.69s13.21,11.95,20.1,17.54a95.27,95.27,0,0,1,17.3,18.24c3.19,4.4,6.25,8.92,10.08,12.8s8.1,6.58,12.48,9.44a234.85,234.85,0,0,1,25.19,18.84c7.46,6.42,14.08,15.27,22.58,20.3,3.51,2.08,7.89,2.15,11.21,4.47,3,2.12,3.47,5.3,4,8.74,1.73,10.87,3.4,21.75,5.09,32.63l.12.12c10.6,13.44,26.31,21.57,33.8,37.57a51.38,51.38,0,0,1,3.79,33.42c-.11-1-1.69-1.3-1.94-.17a24.69,24.69,0,0,0-.48,2.9A22.37,22.37,0,0,0,421.41,719.12Z"/><path class="cls-6" d="M424.48,723.82c.42,1.22-1.51,1.74-1.93.53a23.11,23.11,0,0,1-1.14-5.23c.36-.84.69-1.7,1-2.56.35.82.69,1.71,1,2.63A22,22,0,0,0,424.48,723.82Z"/><path class="cls-6" d="M423.84,711.62a.88.88,0,0,1,0,.36,21,21,0,0,0-.41,7.21c-.33-.92-.67-1.81-1-2.63A46.29,46.29,0,0,0,423.84,711.62Z"/><path class="cls-6" d="M421.9,711.45c.25-1.13,1.83-.82,1.94.17a46.29,46.29,0,0,1-1.44,4.94c-.32-.79-.65-1.53-1-2.21A24.69,24.69,0,0,1,421.9,711.45Z"/><path class="cls-6" d="M422.4,716.56c-.3.86-.63,1.72-1,2.56a22.37,22.37,0,0,1,0-4.77C421.75,715,422.08,715.77,422.4,716.56Z"/><path class="cls-6" d="M384.53,994.16c5.6,6.68,10.65,16.74,7.34,25.59-1.41,3.77-4.51,6.16-7.89,8.12-4.21,2.43-7.74,4.63-11,8.36-6.24,7.23-11.35,12.71-21.51,13-17.51.55-43.34-7.79-41.23-29.78,1-10.3,8.1-20.06,12.16-29.36A249.67,249.67,0,0,0,332.12,964c-.58-6.62-.73-23.63,8.14-19.41,4.06,1.93,5.66,8.87,7.74,12.46a74.89,74.89,0,0,0,11.81,15.39C367.57,980.18,377.43,985.7,384.53,994.16ZM386,1020c5.62-7.74-1.74-19-7.17-24.68-5.91-6.18-13.2-10.78-19.53-16.48a80.11,80.11,0,0,1-15.2-18.57c-.83-1.39-4.68-10.81-6.16-10.28-.37.13-.7,1.8-.88,3.24a34.19,34.19,0,0,1,.09,3.67c0,3-.36.73-.43,4.89,0,.74-.15,5.45-.55,5.94-2,6.37-3.85,11.4-6.35,17.6-3.65,9-8.29,17.55-12.2,26.45-4,9.15-2.57,18.23,5.28,24.81,7.08,5.94,17,7.44,26,7.67,5.33.14,10.15-.63,14.19-4.33a84.42,84.42,0,0,0,6.4-7.22,33,33,0,0,1,7.1-6.39C379.67,1024.32,383.78,1023,386,1020Z"/><path class="cls-6" d="M378.84,995.3c5.43,5.67,12.79,16.94,7.17,24.68-2.23,3.06-6.34,4.34-9.43,6.32a33,33,0,0,0-7.1,6.39,84.42,84.42,0,0,1-6.4,7.22c-4,3.7-8.86,4.47-14.19,4.33-8.94-.23-18.9-1.73-26-7.67-7.85-6.58-9.31-15.66-5.28-24.81,3.91-8.9,8.55-17.41,12.2-26.45,2.5-6.2,4.34-11.23,6.35-17.6.4-.49.6-5.2.55-5.94.07-4.16.45-1.87.43-4.89a34.19,34.19,0,0,0-.09-3.67c.18-1.44.51-3.11.88-3.24,1.48-.53,5.33,8.89,6.16,10.28a80.11,80.11,0,0,0,15.2,18.57C365.64,984.52,372.93,989.12,378.84,995.3Z"/><path class="cls-7" d="M678,943.1l42.26-11s7.83-11.48,48.52,37S870.5,992.07,923.2,992.89c58.43-12.75,90.78-11.32,122.61-27.95,33.39-28.63,71.35-67.33,82.31-102.81"/><path class="cls-8" d="M676.28,772.62l35.61,13.3s29.35,55.18,81.39,75.52,140.35,34.73,131.81,131c0,0-12.46,24.7,58.76,79.49s34.43,49.3,86.09,76.3,101.74,42.65,118.56,54"/><path class="cls-9" d="M-95.45,1623.07c5.65-5.24,11.73-10.8,15.13-14.19,17-20,35-37,52-57,16-18,33-33,50-50,4-3,7-6,11-9,1-1,2-3,3-4,21-17,39-35,63-49,10-6,21-10,32-14a227.48,227.48,0,0,1,58-10c21,0,41-1,62,1,135,8,267,11,402,22,44,3,87,8,132,14,25,4,48,9,73,13l9,3c35,7,66,16,100,26,3,1,5,3,7,4s5,2,7,3c7,2,14,4,21,8a64.67,64.67,0,0,0,16,9c25,13,48,27,73,41,35,18.41,68.26,37.66,101.91,56.71"/><path class="cls-7" d="M251.07,1216.62l-89.91-42.83a.63.63,0,0,1,0-1.15l20.42-8.6a.63.63,0,0,1,.83.35c1.14,3,6,16.14,4.75,21.79"/><rect class="cls-5" x="39.63" y="1218.38" width="30" height="25.24" rx="4.01" transform="translate(284.68 20.45) rotate(13.3)"/><rect class="cls-5" x="147.13" y="1184.79" width="47.22" height="22.69" rx="4.48" transform="translate(500.36 33.71) rotate(23.95)"/><path class="cls-4" d="M785,674.37s41.72,2.64,85,8.9,159.65,12,228.52-3.65c68.87-52.18,96.52-77.74,96.52-77.74"/><rect class="cls-5" x="196.45" y="1107.14" width="35.02" height="48.72" rx="4.39" transform="translate(477.84 10.59) rotate(23.95)"/><rect class="cls-5" x="222.76" y="1514.14" width="36.78" height="31.04" rx="4.43"/><rect class="cls-5" x="484.23" y="1074.78" width="9.84" height="28.29" rx="2.28" transform="translate(855.97 -47.06) rotate(42.09)"/><rect class="cls-5" x="387.77" y="1065.22" width="56.93" height="31.89" rx="3.95" transform="translate(952.52 54.24) rotate(48.63)"/><path class="cls-5" d="M853.68,304.38c.51,18.35.73,39-14.12,52.24-15,13.42-36.11,14.5-55.24,14-3.61-.08-8.57.65-11.52-1.92-2.7-2.35-3.41-7-3.89-10.32-1.52-10.56,1-21.17.09-31.75-3.1-35.63-37.69-58.26-47.73-91.41-3.42-11.29-4.59-23.27-6.37-34.89-1.56-10.21-4.18-20.79-4.36-31.14-.13-7,2.45-13.87,9.68-16.12,8.47-2.65,17.66-.23,24.6,4.12a204.06,204.06,0,0,1,55.87,36.21c16.22,14.69,32.75,32.53,42,52.58C851.08,264.23,853.12,284.57,853.68,304.38ZM850,334.5c2.15-9.27,1.93-18.94,1.7-28.39a234.87,234.87,0,0,0-2.22-29c-3-20.28-11-37.56-23.64-53.64-21.47-27.37-49-49.95-80.89-64l-.05,0-.17-.08c-.44-.28-.9-.54-1.37-.78-5-2.68-11.75-4-17.38-4.22-6.88-.26-12.1,3.74-13.19,10.6-.85,5.41.37,11,1.19,16.32q1.34,8.79,2.68,17.57c1.7,11.08,2.89,22.42,5.78,33.26a93.23,93.23,0,0,0,11.32,25c15.73,25.3,38.71,47.23,37.32,79.2-.23,5.19-.77,10.37-.69,15.57a47.1,47.1,0,0,0,.72,7.78,27.53,27.53,0,0,0,.87,3.5c.93,2.87,1,2.88,4,4.16,5.18,2.22,12,1.51,17.61,1.44a116.87,116.87,0,0,0,14.6-1C827.6,365.09,845.34,354.68,850,334.5Z"/><path class="cls-5" d="M851.72,306.11c.23,9.45.45,19.12-1.7,28.39-4.68,20.18-22.42,30.59-41.84,33.27a116.87,116.87,0,0,1-14.6,1c-5.63.07-12.43.78-17.61-1.44-3-1.28-3-1.29-4-4.16a27.53,27.53,0,0,1-.87-3.5,47.1,47.1,0,0,1-.72-7.78c-.08-5.2.46-10.38.69-15.57,1.39-32-21.59-53.9-37.32-79.2a93.23,93.23,0,0,1-11.32-25c-2.89-10.84-4.08-22.18-5.78-33.26q-1.33-8.78-2.68-17.57c-.82-5.35-2-10.91-1.19-16.32,1.09-6.86,6.31-10.86,13.19-10.6,5.63.2,12.39,1.54,17.38,4.22a.84.84,0,0,0,.43.37l.94.41.17.08.05,0c31.92,14,59.42,36.61,80.89,64,12.6,16.08,20.6,33.36,23.64,53.64A234.87,234.87,0,0,1,851.72,306.11Z"/><path class="cls-5" d="M744.75,159.37l-.94-.41a.84.84,0,0,1-.43-.37C743.85,158.83,744.31,159.09,744.75,159.37Z"/><path class="cls-7" d="M369.42,1070.87s53.94-77.69,63.47-76.38,130.83-12,130.83-12,10.6-18.76,14.09-17.48"/><polyline class="cls-10" points="443.07 834.4 404.13 848.21 375.89 894.31"/><path class="cls-4" d="M264.75,1296.81s-3.6,29.23,11.47,39.09"/><path class="cls-4" d="M262.65,1304.1s-15.95,20.4-23.45,21.43"/><path class="cls-11" d="M-129.15,1340.66s108-83.09,183.78-68.09S291.24,1342,291.24,1342s49.17,72,187.44,48c40.69.52,60.26,9.91,119.73,9.65s323.22,25.3,323.22,25.3,48.52,6.26,93.13,32.87c74.35,29.74,197.22,90.78,197.22,90.78"/><line class="cls-12" x1="472.41" y1="1130.47" x2="617.59" y2="1158.64"/><path class="cls-4" d="M213.55,1631.07c-24.23-19.75-54.87-42.19-78.7-61.89"/><path class="cls-4" d="M548.59,1519.7l-7.34-3.23c-1.7,5.47-3.88,11-5,16.58-.86,4.36-1.88,9.49-6,11.55a30.49,30.49,0,0,0-8.19,4.1c-16.37,12.31-30.7,22.58-47.07,32.84a39.21,39.21,0,0,1-25.58-9.24c-7.16-6.15-24.56-17.44-25.58-17.44-11.26-5.13-21.49-10.26-33.77-12.32-8.19-1-17.4-2-25.58-1-20.47,2-39.28,17.29-46.05,35.91-6.88,18.92.73,56.79.21,54.08,0,0,35.34,92.18,4.77,133.94s-213.15,321.23-213.15,321.23L-1.85,2191.1"/><path class="cls-8" d="M488,1111.29s8.22,7.93,4.89,22.11"/><line class="cls-8" x1="232.94" y1="1501.36" x2="219.13" y2="1484.31"/><line class="cls-8" x1="213.63" y1="1483.1" x2="275.91" y2="1496.79"/><text class="cls-13" transform="matrix(0.25, -0.97, 0.97, 0.25, 616.96, 448.52)">Mukkulankatu</text><text class="cls-14" transform="translate(606.4 608.31) rotate(64.48)">Mukkulankatu</text><text class="cls-15" transform="translate(424.64 85.01) rotate(-2.05) scale(1.02 1)">Ritaniemenkatu</text><text class="cls-16" transform="translate(478.63 301.29) rotate(87.53)">Niemenkatu</text><text class="cls-17" transform="matrix(0.66, 0.75, -0.75, 0.66, 426.38, 543.52)">Niemenkatu</text><text class="cls-18" transform="translate(362.52 1245.52) rotate(-25.06)"> </text><text class="cls-19" transform="translate(700.82 766.7) rotate(-44.22)">Lahden<tspan class="cls-20" x="65.42" y="0">k</tspan><tspan class="cls-21" x="75.6" y="0">a</tspan><tspan x="85.6" y="0">tu</tspan></text><text class="cls-22" transform="translate(86.59 712.71)">V<tspan class="cls-23" x="14.78" y="0">esijä</tspan><tspan class="cls-24" x="67.11" y="0">r</tspan><tspan class="cls-23" x="77.03" y="0">vi</tspan></text><text class="cls-25" transform="translate(447.23 1186.16) rotate(10.75) scale(0.99 1)">Aleksanterinkatu</text><path class="cls-4" d="M729.11,1707.44c98.61-79.82,189.39-158.87,189.39-158.87l49.36-207.07"/><path class="cls-4" d="M-114.54,1600.13s61-34.6,115.82-31c108,67.83,162.38,147.66,269,193,158.29,21.91,243.09,42.26,243.09,42.26s174.42-63.21,193.77-79.06l22.68-18.58"/><text class="cls-26" transform="translate(605.75 986.43) rotate(74.55)"><tspan class="cls-27">V</tspan><tspan class="cls-28" x="11.08" y="0">esijä</tspan><tspan class="cls-29" x="50.23" y="0">r</tspan><tspan class="cls-30" x="57.66" y="0">v</tspan><tspan x="67.6" y="0">en</tspan><tspan class="cls-31" x="89.87" y="0">k</tspan><tspan class="cls-32" x="100.15" y="0">a</tspan><tspan x="110.23" y="0">tu</tspan></text><text class="cls-33" transform="translate(589.05 1307.34) rotate(-79.39)"><tspan class="cls-34">V</tspan><tspan x="6.33" y="0">esijä</tspan><tspan class="cls-35" x="28.7" y="0">r</tspan><tspan class="cls-36" x="32.94" y="0">v</tspan><tspan x="38.62" y="0">en</tspan><tspan class="cls-37" x="51.35" y="0">k</tspan><tspan class="cls-38" x="57.22" y="0">a</tspan><tspan x="62.98" y="0">tu</tspan></text><text class="cls-39" transform="translate(508.17 1075.68) rotate(-52.66)">Lahden<tspan class="cls-40" x="61.67" y="0">k</tspan><tspan class="cls-41" x="71.27" y="0">a</tspan><tspan x="80.69" y="0">tu</tspan></text><text class="cls-42" transform="translate(106.76 1582.8) rotate(-46.24)">Helsin<tspan class="cls-43" x="49.38" y="0">g</tspan><tspan x="59.99" y="0">i</tspan><tspan class="cls-44" x="64.48" y="0">n</tspan><tspan x="75.05" y="0">tie</tspan></text></g><rect class="cls-5" x="509.37" y="1401.94" width="48.03" height="48.03" rx="10.47"/><circle class="cls-45" cx="518.28" cy="1412.58" r="4.06"/><line class="cls-10" x1="530.81" y1="1429.58" x2="522.75" y2="1444.9"/><line class="cls-10" x1="541.93" y1="1429.15" x2="549.28" y2="1445.04"/><polygon points="544.98 1435.55 527.05 1435.56 529.05 1432.04 543.31 1432.03 544.98 1435.55"/><polygon points="547.95 1442.21 524.09 1442.23 526.75 1438.71 545.73 1438.69 547.95 1442.21"/><path d="M527.68,1430.06l18,0a2.61,2.61,0,0,0,2.61-2.61l0-15.36a5.22,5.22,0,0,0-5.22-5.22H530.27a5.21,5.21,0,0,0-5.21,5.23v15.36A2.61,2.61,0,0,0,527.68,1430.06Zm3.65-3.91a1.6,1.6,0,1,1,1.6-1.6A1.6,1.6,0,0,1,531.33,1426.15Zm10.23,0a1.6,1.6,0,1,1,1.59-1.6A1.6,1.6,0,0,1,541.56,1426.14Zm-3.22-13a1,1,0,0,1,1-1h4.31a1,1,0,0,1,1,1v4.31a1,1,0,0,1-1,1h-4.31a1,1,0,0,1-1-1Zm-10.22,0a1,1,0,0,1,1-1h4.31a1,1,0,0,1,1,1v4.31a1,1,0,0,1-1,1h-4.31a1,1,0,0,1-1-1Z"/><line class="cls-46" x1="518.28" y1="1412.58" x2="518.28" y2="1410.39"/><line class="cls-46" x1="518.28" y1="1412.62" x2="519.59" y2="1412.62"/></g></svg>