<?xml version="1.0" encoding="utf-8"?>
<!-- Generator: Adobe Illustrator 23.0.3, SVG Export Plug-In . SVG Version: 6.00 Build 0)  -->
<svg version="1.1" id="Layer_1" xmlns="http://www.w3.org/2000/svg" xmlns:xlink="http://www.w3.org/1999/xlink" x="0px" y="0px"
	 viewBox="0 0 256 256" style="enable-background:new 0 0 256 256;" xml:space="preserve">
<style type="text/css">
	.st0{fill:none;stroke:#FED13A;stroke-width:3;stroke-miterlimit:10;}
</style>
<g>
	<circle class="st0" cx="49.76" cy="22.27" r="19.27"/>
	<path class="st0" d="M67.26,196.29"/>
	<path class="st0" d="M168.34,196.33c8.6,16.57,2.14,36.96-14.43,45.56c-16.57,8.6-36.96,2.14-45.56-14.43"/>
	<path class="st0" d="M179.53,135.25l4.17-1.99c17.38-9.02,39.2-1.41,48.75,16.98l3.17,6.11c0.95,1.84,0.32,4.06-1.42,4.96
		L60.24,251.59c-1.74,0.9-3.92,0.14-4.88-1.7l-3.17-6.11c-9.55-18.4-2.96-40.64,14.41-49.66l0.93-0.51"/>
	<path class="st0" d="M66.46,194.75L24.93,114.7c-13.08-25.2,0.18-58.01,29.62-73.29l8.11-4.21c29.43-15.27,63.9-7.23,76.97,17.97
		l41.56,80.1"/>
</g>
</svg>
