<?xml version="1.0" encoding="utf-8"?>
<!-- Generator: Adobe Illustrator 23.0.3, SVG Export Plug-In . SVG Version: 6.00 Build 0)  -->
<svg version="1.1" id="Layer_1" xmlns="http://www.w3.org/2000/svg" xmlns:xlink="http://www.w3.org/1999/xlink" x="0px" y="0px"
	 viewBox="0 0 256 256" style="enable-background:new 0 0 256 256;" xml:space="preserve">
<style type="text/css">
	.st0{fill:none;stroke:#FED13A;stroke-width:3;stroke-miterlimit:10;}
</style>
<g>
	<path class="st0" d="M60.47,90.69H23.86c-11.05,0-20,8.95-20,20v123.37c0,11.05,8.95,20,20,20h36.61c11.05,0,20-8.95,20-20V110.69
		C80.47,99.64,71.52,90.69,60.47,90.69z"/>
	<path class="st0" d="M147.24,3h-36.61c-11.05,0-20,8.95-20,20v211.06c0,11.05,8.95,20,20,20h36.61c11.05,0,20-8.95,20-20V23
		C167.24,11.95,158.28,3,147.24,3z"/>
	<path class="st0" d="M234,46.38h-36.61c-11.05,0-20,8.95-20,20v167.68c0,11.05,8.95,20,20,20H234c11.05,0,20-8.95,20-20V66.38
		C254,55.34,245.05,46.38,234,46.38z"/>
</g>
</svg>
